/* XPM */
static char * hide_pressed_xpm[] = {
"29 29 3 1",
" 	c None",
".	c #008000",
"+	c #005555",
".............................",
".+++++++++++++++++++++++++++.",
".+++++++++++++++++++++++++++.",
".+++++++++++++++++++++++++++.",
".+++++++++++++++++++++++++++.",
".+++++++++++++++++++++++++++.",
".+++++++++++++++++++++++++++.",
".+++++++++++++++++++++++++++.",
".+++++++++++++++++++++++++++.",
".+++++++++++++++++++++++++++.",
".+++++++++++++++++++++++++++.",
".+++++++++++++++++++++++++++.",
".+++++++++++++++++++++++++++.",
".+++++++.............+++++++.",
".+++++++.............+++++++.",
".+++++++.............+++++++.",
".+++++++++++++++++++++++++++.",
".+++++++++++++++++++++++++++.",
".+++++++++++++++++++++++++++.",
".+++++++++++++++++++++++++++.",
".+++++++++++++++++++++++++++.",
".+++++++++++++++++++++++++++.",
".+++++++++++++++++++++++++++.",
".+++++++++++++++++++++++++++.",
".+++++++++++++++++++++++++++.",
".+++++++++++++++++++++++++++.",
".+++++++++++++++++++++++++++.",
".+++++++++++++++++++++++++++.",
"............................."};
